Coordinates
version=1
nRows=9
nColumns=32
inDegrees=yes

Units are S.I. units (second, meters, Newtons, ...)
Angles are in degrees.
endheader
time	lower_torso_RX	lower_torso_RY	lower_torso_RZ	lower_torso_TX	lower_torso_TY	lower_torso_TZ	lumbar_pitch	lumbar_roll	lumbar_yaw	hip_flex_r	hip_add_r	hip_rot_r	knee_flex_r	tib_pat_r_r3	tib_pat_r_tx	tib_pat_r_ty	tib_pat_r_tz	ankle_flex_r	subt_angle_r	toe_angle_r	hip_flex_l	hip_add_l	hip_rot_l	knee_flex_l	tib_pat_l_r3	tib_pat_l_tx	tib_pat_l_ty	tib_pat_l_tz	ankle_flex_l	subt_angle_l	toe_angle_l
3.73000000000000000000	-2.59485827000000000000	2.42944905000000010000	-13.46442225000000000000	-0.13799884000000001000	0.66310086000000001000	-0.25895389000000002000	7.63505716999999960000	2.51261023999999990000	13.21614167000000100000	7.98979394000000020000	6.64787142000000040000	23.56790586000000000000	34.95847011000000000000	9.96348010740064010000	0.04035786134205462900	-0.01949372216350430200	0.00219691669626343640	15.04525321999999900000	0.47885244999999999000	0.00000000000000000000	42.80693137000000100000	-1.54793825000000010000	15.13882682000000000000	26.05575440000000100000	7.74192730717855060000	0.04105777602301299800	-0.01939486068301308300	-0.00214957326773124700	-4.43875140000000010000	-3.02315267999999990000	0.00000000000000000000
3.74000000000000020000	-2.28840998999999990000	1.16895039000000000000	-13.53051552000000000000	-0.12900587999999999000	0.66189275000000003000	-0.25886304999999998000	7.70916714999999990000	1.74582704000000000000	13.77253943000000000000	8.13358258000000060000	6.20111492000000020000	23.87237217999999900000	36.57259736999999700000	10.32393486850592400000	0.04004548998870766800	-0.01943559866576916400	0.00219691669626343640	14.64200432000000000000	1.36706376999999990000	0.00000000000000000000	43.12376859999999800000	-1.14501447000000000000	14.61329390000000000000	28.83080469000000100000	8.47848083345751570000	0.04059020376041249500	-0.01929386945865592400	-0.00214957326773124700	-2.71674054999999990000	-4.30060225999999980000	0.00000000000000000000
3.75000000000000000000	-1.85042018999999990000	0.08236719000000000700	-13.65736674000000100000	-0.12003488000000000000	0.66071225000000000000	-0.25907374000000000000	7.87564656999999980000	0.85319595999999998000	14.17704232000000000000	8.46693993999999960000	5.60870704999999960000	23.94716116000000000000	38.26984719000000000000	10.68981149840134700000	0.03971022830447534100	-0.01937521738859724800	0.00219691669626343640	13.98196630000000000000	2.24095143000000000000	0.00000000000000000000	43.29835603000000100000	-0.59511064999999996000	14.01578885000000000000	31.08585905000000000000	9.04705566474909160000	0.04019557537985528300	-0.01921220705457427800	-0.00214957326773124700	-0.94882783000000004000	-5.36664499000000020000	0.00000000000000000000
3.75999999999999980000	-1.24872245000000000000	-0.78341174000000002000	-13.82845607000000000000	-0.11096118000000001000	0.65977125999999997000	-0.25965280000000002000	8.11779663000000080000	-0.15492798999999999000	14.40914429000000000000	8.94461467000000000000	4.85139992000000040000	23.75799105000000100000	40.00887309000000200000	11.05110625930887400000	0.03935962073711140500	-0.01931425133923466200	0.00219691669626343640	13.01432020999999900000	3.04228587000000020000	0.00000000000000000000	43.27456578000000300000	0.10675012000000000000	13.40778502999999900000	32.69073739000000200000	9.43585996401904840000	0.03990690160734965100	-0.01915446987203368900	-0.00214957326773124700	0.65649964000000005000	-6.14815536999999960000	0.00000000000000000000
3.77000000000000000000	-0.47353466000000000000	-1.39508126000000000000	-14.03027256999999900000	-0.10187323000000000000	0.65936598999999996000	-0.26055850000000003000	8.41671048999999980000	-1.25416192000000000000	14.45714339000000100000	9.52484897000000070000	3.93308654000000010000	23.27295687999999900000	41.73969558999999700000	11.39743612587246700000	0.03900369255403391500	-0.01925457183522598400	0.00219691669626343640	11.69873875000000000000	3.70983784000000010000	0.00000000000000000000	43.02115108999999600000	0.95984793999999996000	12.84552397000000000000	33.65054337000000100000	9.66224335927740620000	0.03973120371210216900	-0.01912013696560663900	-0.00214957326773124700	1.97955781999999990000	-6.64311211999999960000	0.00000000000000000000
3.77999999999999980000	0.44079517000000001000	-1.74851949000000010000	-14.24703983999999900000	-0.09284944000000000500	0.65952263000000000000	-0.26164024000000002000	8.75370979999999930000	-2.40638316999999980000	14.31879445999999900000	10.17541145999999900000	2.88615662000000000000	22.46732435999999900000	43.41175788000000300000	11.71981756801764300000	0.03865342269827476400	-0.01919784221965964400	0.00219691669626343640	10.01226314000000000000	4.19068115999999960000	0.00000000000000000000	42.54559039000000100000	1.95553649000000010000	12.37250049000000000000	34.05242782999999900000	9.75568830498694520000	0.03965696474319669500	-0.01910581140114503100	-0.00214957326773124700	2.99282381999999990000	-6.90562713000000010000	0.00000000000000000000
3.79000000000000000000	1.42647019000000010000	-1.87333459000000000000	-14.46737255000000000000	-0.08392426000000000100	0.66009351999999999000	-0.26281302000000001000	9.11220308999999950000	-3.56215408999999990000	14.00120506999999900000	10.87547533999999900000	1.76325467000000000000	21.33270518000000100000	44.98016247999999700000	12.01164569818343800000	0.03831929381998906700	-0.01914541119217567900	0.00219691669626343640	7.95650054000000040000	4.45253113999999960000	0.00000000000000000000	41.88950617999999800000	3.05904530000000020000	12.02319065999999900000	34.02043342000000300000	9.74827794893837840000	0.03966288943438111400	-0.01910695072845753800	-0.00214957326773124700	3.73629753999999980000	-7.01601379999999960000	0.00000000000000000000
3.79999999999999980000	2.40720564999999990000	-1.82155969999999990000	-14.69181648000000000000	-0.07513826999999999300	0.66094381000000002000	-0.26410113000000002000	9.47871939999999920000	-4.66534514000000030000	13.52004642000000000000	11.61599371000000000000	0.62143391999999997000	19.88613471000000000000	46.40894739000000200000	12.26884559102523500000	0.03801034393231077900	-0.01909827182090859800	0.00219691669626343640	5.56335991000000000000	4.49443184999999980000	0.00000000000000000000	41.11114400000000300000	4.19897443999999980000	11.82706297999999900000	33.68263524999999700000	9.66973428280196150000	0.03972528998442510800	-0.01911899188681083500	-0.00214957326773124700	4.28195655000000030000	-7.04985774000000020000	0.00000000000000000000
3.81000000000000010000	3.31384705000000010000	-1.64811486000000000000	-14.93154577000000000000	-0.06649839999999999900	0.66198884999999996000	-0.26550927000000002000	9.84304861999999940000	-5.65951306000000010000	12.89822625000000000000	12.39708040999999900000	-0.49072374000000002000	18.17243951000000000000	47.67533977000000100000	12.49010392550308300000	0.03773296535016341200	-0.01905696269551843100	0.00219691669626343640	2.89742288000000010000	4.35263972999999990000	0.00000000000000000000	40.26766324999999800000	5.28352570000000020000	11.80386360000000000000	33.14615787000000300000	9.54384435116613790000	0.03982381724328432800	-0.01913815894609117000	-0.00214957326773124700	4.70217895000000040000	-7.05698544000000010000	0.00000000000000000000
